<svg width="45" height="45" viewBox="0 0 45 45" fill="none" xmlns="http://www.w3.org/2000/svg">
<path d="M13.5 26.4669V29.9332C13.5 30.4671 13.9477 30.8999 14.5 30.8999H18.0858C18.351 30.8999 18.6054 30.7981 18.7929 30.6168L30.7929 19.0165C31.1834 18.639 31.1834 18.0269 30.7929 17.6494L27.2071 14.183C26.8166 13.8055 26.1834 13.8055 25.7929 14.183L13.7929 25.7833C13.6054 25.9646 13.5 26.2105 13.5 26.4669Z" fill="#6E6E70"/>
<path d="M31.5 28.9665C31.5 30.0343 30.6046 30.8999 29.5 30.8999C28.3954 30.8999 27.5 30.0343 27.5 28.9665C27.5 27.8987 28.3954 27.0331 29.5 27.0331C30.6046 27.0331 31.5 27.8987 31.5 28.9665Z" fill="#6E6E70"/>
</svg>
