<svg width="343" height="343" viewBox="0 0 343 343" fill="none" xmlns="http://www.w3.org/2000/svg">
<path d="M0 10C0 4.47716 4.47715 0 10 0H333C338.523 0 343 4.47715 343 10V333C343 338.523 338.523 343 333 343H10C4.47716 343 0 338.523 0 333V10Z" fill="#232323"/>
<path d="M161.809 176V169.637H162.816V176H161.809ZM162.312 168.582C161.926 168.582 161.609 168.289 161.609 167.914C161.609 167.539 161.926 167.246 162.312 167.246C162.699 167.246 163.027 167.539 163.027 167.914C163.027 168.289 162.699 168.582 162.312 168.582ZM164.182 176V169.637H165.155V170.633H165.237C165.506 169.953 166.115 169.555 166.947 169.555C167.78 169.555 168.342 169.953 168.647 170.633H168.717C169.045 169.977 169.713 169.555 170.627 169.555C171.764 169.555 172.572 170.246 172.572 171.746V176H171.565V171.758C171.565 170.82 170.967 170.457 170.276 170.457C169.385 170.457 168.881 171.055 168.881 171.863V176H167.862V171.652C167.862 170.938 167.346 170.457 166.619 170.457C165.858 170.457 165.19 171.102 165.19 172.027V176H164.182ZM176.528 178.52C174.993 178.52 173.95 177.852 173.833 176.668H174.887C175.028 177.312 175.625 177.641 176.528 177.641C177.618 177.641 178.286 177.172 178.286 176.117V174.828H178.204C177.993 175.18 177.583 175.906 176.352 175.906C174.805 175.906 173.645 174.734 173.645 172.73C173.645 170.773 174.77 169.555 176.364 169.555C177.594 169.555 177.993 170.305 178.227 170.645H178.309V169.637H179.293V176.176C179.293 177.816 178.075 178.52 176.528 178.52ZM176.493 175.004C177.653 175.004 178.309 174.172 178.309 172.766C178.309 171.406 177.676 170.457 176.493 170.457C175.274 170.457 174.665 171.488 174.665 172.766C174.665 174.09 175.286 175.004 176.493 175.004Z" fill="white" fill-opacity="0.24"/>
</svg>
