<svg width="20" height="24" viewBox="0 0 20 24" fill="none" xmlns="http://www.w3.org/2000/svg">
<path d="M19.0967 8.18824C17.4816 9.17647 16.484 10.8706 16.484 12.7529C16.484 14.8706 17.7666 16.8 19.7143 17.6C19.3342 18.8235 18.7642 19.9529 18.0516 20.9882C17.0065 22.4471 15.9139 23.9529 14.2988 23.9529C12.6836 23.9529 12.2086 23.0118 10.3084 23.0118C8.45577 23.0118 7.79071 24 6.27057 24C4.75043 24 3.70534 22.6353 2.51773 20.9412C0.950086 18.5882 0.0475043 15.8588 0 12.9882C0 8.32941 3.04028 5.83529 6.08055 5.83529C7.6957 5.83529 9.02582 6.87059 10.0234 6.87059C10.9735 6.87059 12.4936 5.78824 14.2988 5.78824C16.199 5.74118 18.0041 6.63529 19.0967 8.18824ZM13.4437 3.81176C14.2513 2.87059 14.6788 1.69412 14.7263 0.470588C14.7263 0.329412 14.7263 0.141176 14.6788 0C13.3012 0.141176 12.0186 0.8 11.116 1.83529C10.3084 2.72941 9.83339 3.85882 9.78589 5.08235C9.78589 5.22353 9.78589 5.36471 9.83339 5.50588C9.9284 5.50588 10.0709 5.55294 10.1659 5.55294C11.4485 5.45882 12.6361 4.8 13.4437 3.81176Z" fill="#FCFCFE"/>
</svg>
