<svg width="24" height="24" viewBox="0 0 24 24" fill="none" xmlns="http://www.w3.org/2000/svg">
<g clip-path="url(#clip0_2100_7842)">
<path fill-rule="evenodd" clip-rule="evenodd" d="M9.84564 4.77405C10.2466 5.15387 10.2637 5.78681 9.88385 6.18774L5.32485 11.0001L21 11.0001C21.5523 11.0001 22 11.4478 22 12.0001C22 12.5524 21.5523 13.0001 21 13.0001L5.32489 13.0001L9.88384 17.8123C10.2637 18.2132 10.2466 18.8461 9.84564 19.226C9.44471 19.6058 8.81178 19.5887 8.43195 19.1878L2.27405 12.6878C1.90865 12.3021 1.90865 11.698 2.27404 11.3123L8.43194 4.81226C8.81177 4.41133 9.4447 4.39422 9.84564 4.77405Z" fill="#FCFCFE"/>
</g>
<defs>
<clipPath id="clip0_2100_7842">
<rect width="24" height="24" fill="white"/>
</clipPath>
</defs>
</svg>
