<svg width="44" height="45" viewBox="0 0 44 45" fill="none" xmlns="http://www.w3.org/2000/svg">
<path fill-rule="evenodd" clip-rule="evenodd" d="M26.0597 23.9181C27.2525 22.8215 28 21.248 28 19.5C28 16.1863 25.3137 13.5 22 13.5C18.6863 13.5 16 16.1863 16 19.5C16 21.248 16.7475 22.8215 17.9403 23.9181C17.0872 24.3331 16.2484 24.8814 15.6009 25.4896C14.7606 26.2789 14.094 27.2159 13.6392 28.2472C13.3129 28.9871 13.1002 29.7651 13.0061 30.5579C12.9446 31.0756 13.3555 31.5 13.8553 31.5H30.1447C30.6445 31.5 31.0554 31.0756 30.9939 30.5579C30.8998 29.7651 30.6871 28.9871 30.3608 28.2472C29.906 27.2159 29.2394 26.2789 28.3991 25.4896C27.7516 24.8814 26.9128 24.3331 26.0597 23.9181Z" fill="#6E6E70"/>
</svg>
