<svg width="24" height="25" viewBox="0 0 24 25" fill="none" xmlns="http://www.w3.org/2000/svg">
<path d="M11.5144 3.76989L3.51436 8.21433C3.19689 8.3907 3 8.72532 3 9.08849V20.5001C3 21.0524 3.44772 21.5001 4 21.5001H20C20.5523 21.5001 21 21.0524 21 20.5001V9.08849C21 8.72532 20.8031 8.3907 20.4856 8.21433L12.4856 3.76989C12.1836 3.6021 11.8164 3.6021 11.5144 3.76989Z" fill="#FCFCFE"/>
<path fill-rule="evenodd" clip-rule="evenodd" d="M5 9.67689V19.5001H19V9.67689L12 5.788L5 9.67689ZM3.51436 8.21433L11.5144 3.76989C11.8164 3.6021 12.1836 3.6021 12.4856 3.76989L20.4856 8.21433C20.8031 8.3907 21 8.72532 21 9.08849V20.5001C21 21.0524 20.5523 21.5001 20 21.5001H4C3.44772 21.5001 3 21.0524 3 20.5001V9.08849C3 8.72532 3.19689 8.3907 3.51436 8.21433Z" fill="#FCFCFE"/>
</svg>
