<svg width="24" height="24" viewBox="0 0 24 24" fill="none" xmlns="http://www.w3.org/2000/svg">
<g clip-path="url(#clip0_50_67)">
<path d="M3 5C3 4.44772 3.44772 4 4 4H17.2676C17.6134 3.4022 18.2597 3 19 3C20.1046 3 21 3.89543 21 5C21 6.10457 20.1046 7 19 7C18.2597 7 17.6134 6.5978 17.2676 6H4C3.44772 6 3 5.55228 3 5Z" fill="#FCFCFE"/>
<path d="M3 12C3 11.4477 3.44772 11 4 11H10.2676C10.6134 10.4022 11.2597 10 12 10C12.7403 10 13.3866 10.4022 13.7324 11H20C20.5523 11 21 11.4477 21 12C21 12.5523 20.5523 13 20 13H13.7324C13.3866 13.5978 12.7403 14 12 14C11.2597 14 10.6134 13.5978 10.2676 13H4C3.44772 13 3 12.5523 3 12Z" fill="#FCFCFE"/>
<path d="M3 19C3 18.4477 3.44772 18 4 18H17.2676C17.6134 17.4022 18.2597 17 19 17C20.1046 17 21 17.8954 21 19C21 20.1046 20.1046 21 19 21C18.2597 21 17.6134 20.5978 17.2676 20H4C3.44772 20 3 19.5523 3 19Z" fill="#FCFCFE"/>
</g>
<defs>
<clipPath id="clip0_50_67">
<rect width="24" height="24" fill="white"/>
</clipPath>
</defs>
</svg>
