<svg width="45" height="45" viewBox="0 0 45 45" fill="none" xmlns="http://www.w3.org/2000/svg">
<path fill-rule="evenodd" clip-rule="evenodd" d="M23.4585 31.181C23.0846 31.6063 22.4154 31.6063 22.0415 31.181L16.693 25.0962C16.6685 25.0683 16.6459 25.0393 16.6252 25.0087C16.4816 24.7968 15.8836 23.9037 15.7329 23.511C15.5613 23.0639 15.366 22.3419 15.2959 21.7172C15.2656 21.4472 15.25 21.1728 15.25 20.8948C15.25 16.8108 18.6078 13.5 22.7499 13.5C26.8921 13.5 30.25 16.8108 30.25 20.8948C30.25 21.1729 30.2344 21.4474 30.2041 21.7175C30.134 22.342 29.985 22.943 29.7672 23.5107C29.6507 23.8145 29.0327 24.766 28.8786 25.0013C28.8554 25.0368 28.8297 25.0704 28.8017 25.1022L23.4585 31.181ZM22.7499 23.2057C24.0444 23.2057 25.0937 22.1711 25.0937 20.8948C25.0937 19.6185 24.0444 18.5839 22.7499 18.5839C21.4555 18.5839 20.4062 19.6185 20.4062 20.8948C20.4062 22.1711 21.4555 23.2057 22.7499 23.2057Z" fill="#6E6E70"/>
</svg>
