<svg width="24" height="24" viewBox="0 0 24 24" fill="none" xmlns="http://www.w3.org/2000/svg">
<g clip-path="url(#clip0_50_69)">
<path fill-rule="evenodd" clip-rule="evenodd" d="M10.6667 5C7.53705 5 5 7.53705 5 10.6667C5 13.7963 7.53705 16.3333 10.6667 16.3333C13.7963 16.3333 16.3333 13.7963 16.3333 10.6667C16.3333 7.53705 13.7963 5 10.6667 5ZM3 10.6667C3 6.43248 6.43248 3 10.6667 3C14.9009 3 18.3333 6.43248 18.3333 10.6667C18.3333 12.4233 17.7426 14.0419 16.7489 15.3347L20.7071 19.2929C21.0976 19.6834 21.0976 20.3166 20.7071 20.7071C20.3166 21.0976 19.6834 21.0976 19.2929 20.7071L15.3347 16.7489C14.0419 17.7426 12.4233 18.3333 10.6667 18.3333C6.43248 18.3333 3 14.9009 3 10.6667Z" fill="#FCFCFE"/>
</g>
<defs>
<clipPath id="clip0_50_69">
<rect width="24" height="24" fill="white"/>
</clipPath>
</defs>
</svg>
