<svg width="45" height="45" viewBox="0 0 45 45" fill="none" xmlns="http://www.w3.org/2000/svg">
<path fill-rule="evenodd" clip-rule="evenodd" d="M22.25 15.5C21.338 15.5 20.5334 16.2797 20.5334 17.3235V18.2059H23.9666V17.3235C23.9666 16.2797 23.162 15.5 22.25 15.5ZM25.9666 18.2059V17.3235C25.9666 15.2486 24.3387 13.5 22.25 13.5C20.1613 13.5 18.5334 15.2486 18.5334 17.3235V18.2059H16.6882C15.72 18.2059 14.945 18.9322 14.8052 19.8491L13.2726 29.2621L13.2715 29.2693C13.1043 30.3989 13.9459 31.5 15.1557 31.5H29.3443C30.554 31.5 31.3957 30.3989 31.2285 29.2693L31.2274 29.2621L29.6948 19.8491C29.555 18.9322 28.78 18.2059 27.8118 18.2059H25.9666Z" fill="#6E6E70"/>
</svg>
